<svg width="242" height="60" viewBox="0 0 242 60" fill="none" xmlns="http://www.w3.org/2000/svg">
<path d="M128.72 35.28C128.68 35.76 128.56 36.14 128.36 36.42C128.2 36.66 127.88 36.78 127.4 36.78H108.62C108.9 39.46 109.74 41.44 111.14 42.72C112.58 44 114.28 44.68 116.24 44.76C118.08 44.84 119.68 44.66 121.04 44.22C122.44 43.78 123.78 43.16 125.06 42.36C125.62 42 126 41.9 126.2 42.06C126.4 42.22 126.5 42.64 126.5 43.32V47.82C126.5 48.26 126.44 48.56 126.32 48.72C126.24 48.88 126.02 49.1 125.66 49.38C124.5 50.18 123.02 50.78 121.22 51.18C119.46 51.58 117.72 51.78 116 51.78C111.2 51.78 107.4 50.24 104.6 47.16C101.84 44.08 100.46 39.7 100.46 34.02C100.46 31.9 100.74 29.78 101.3 27.66C101.86 25.54 102.76 23.64 104 21.96C105.24 20.24 106.76 18.86 108.56 17.82C110.36 16.74 112.5 16.2 114.98 16.2C117.5 16.2 119.62 16.66 121.34 17.58C123.1 18.5 124.52 19.74 125.6 21.3C126.72 22.86 127.52 24.68 128 26.76C128.48 28.8 128.72 30.98 128.72 33.3V35.28ZM115.16 23.16C114.32 23.16 113.54 23.36 112.82 23.76C112.1 24.16 111.46 24.68 110.9 25.32C110.38 25.96 109.92 26.7 109.52 27.54C109.12 28.38 108.86 29.26 108.74 30.18H120.92C120.92 29.38 120.78 28.56 120.5 27.72C120.26 26.88 119.9 26.14 119.42 25.5C118.98 24.82 118.4 24.26 117.68 23.82C116.96 23.38 116.12 23.16 115.16 23.16ZM163.935 45.6C162.855 46.52 161.615 47.32 160.215 48C158.815 48.64 157.335 49.18 155.775 49.62C154.255 50.06 152.655 50.4 150.975 50.64C149.335 50.84 147.715 50.94 146.115 50.94H138.555C138.115 50.94 137.775 50.92 137.535 50.88C137.295 50.84 137.115 50.76 136.995 50.64C136.875 50.52 136.795 50.34 136.755 50.1C136.755 49.86 136.755 49.52 136.755 49.08V6.78C136.755 6.3 136.755 5.92 136.755 5.64C136.795 5.36 136.875 5.16 136.995 5.04C137.115 4.92 137.295 4.84 137.535 4.8C137.815 4.76 138.195 4.74 138.675 4.74H149.055C156.735 4.74 162.555 7 166.515 11.52C168.195 13.48 169.435 15.76 170.235 18.36C171.075 20.96 171.495 24.08 171.495 27.72C171.495 31.48 170.835 34.92 169.515 38.04C168.235 41.12 166.375 43.64 163.935 45.6ZM160.275 16.68C159.115 15.2 157.575 14.06 155.655 13.26C153.775 12.46 151.515 12.06 148.875 12.06H144.915V43.56H146.895C149.255 43.56 151.435 43.22 153.435 42.54C155.435 41.86 157.155 40.84 158.595 39.48C160.035 38.12 161.155 36.46 161.955 34.5C162.795 32.5 163.215 30.18 163.215 27.54C163.215 22.86 162.235 19.24 160.275 16.68ZM199.129 51.06C198.769 51.06 198.529 51.02 198.409 50.94C198.329 50.86 198.289 50.62 198.289 50.22V47.64C197.609 48.72 196.489 49.64 194.929 50.4C193.409 51.16 191.889 51.54 190.369 51.54C188.729 51.54 187.149 51.32 185.629 50.88C184.109 50.4 182.849 49.68 181.849 48.72C180.889 47.72 180.129 46.54 179.569 45.18C179.009 43.78 178.729 42.2 178.729 40.44C178.729 38.36 179.229 36.48 180.229 34.8C181.229 33.12 182.549 31.82 184.189 30.9C185.869 29.94 187.849 29.26 190.129 28.86C192.409 28.42 194.929 28.28 197.689 28.44C197.449 25.28 196.089 23.54 193.609 23.22C192.809 23.14 191.989 23.16 191.149 23.28C190.349 23.4 189.549 23.6 188.749 23.88C187.989 24.12 187.249 24.42 186.529 24.78C185.809 25.1 185.169 25.44 184.609 25.8C183.769 26.36 183.169 26.64 182.809 26.64C182.449 26.64 182.269 26.24 182.269 25.44V20.46C182.269 19.94 182.309 19.58 182.389 19.38C182.509 19.14 182.809 18.9 183.289 18.66C184.489 18.06 185.889 17.5 187.489 16.98C189.129 16.46 191.049 16.2 193.249 16.2C197.329 16.2 200.369 17.24 202.369 19.32C204.409 21.4 205.429 24.62 205.429 28.98V42.66C205.429 43.18 205.429 43.76 205.429 44.4C205.429 45 205.429 45.62 205.429 46.26C205.469 46.9 205.489 47.52 205.489 48.12C205.529 48.68 205.569 49.18 205.609 49.62C205.689 50.42 205.649 50.86 205.489 50.94C205.329 51.02 205.049 51.06 204.649 51.06H199.129ZM198.289 34.5C196.009 34.54 194.129 34.72 192.649 35.04C191.169 35.32 189.969 35.72 189.049 36.24C188.169 36.76 187.569 37.38 187.249 38.1C186.929 38.82 186.769 39.62 186.769 40.5C186.769 41.78 187.149 42.78 187.909 43.5C188.669 44.18 189.729 44.52 191.089 44.52C193.249 44.52 194.969 43.74 196.249 42.18C197.569 40.58 198.249 38.02 198.289 34.5ZM235.244 50.94C234.684 50.94 234.304 50.9 234.104 50.82C233.904 50.7 233.684 50.46 233.444 50.1L225.164 37.02L222.764 39.84V49.62C222.764 50.1 222.664 50.42 222.464 50.58C222.304 50.74 222.004 50.82 221.564 50.82H216.044C215.604 50.82 215.304 50.74 215.144 50.58C214.984 50.42 214.904 50.1 214.904 49.62V2.82C214.904 2.02 215.284 1.62 216.044 1.62H221.564C222.364 1.62 222.764 2.02 222.764 2.82V28.98L232.124 17.64C232.324 17.4 232.504 17.24 232.664 17.16C232.824 17.08 233.084 17.04 233.444 17.04H239.324C240.004 17.04 240.384 17.18 240.464 17.46C240.584 17.74 240.344 18.24 239.744 18.96L229.844 31.38L241.364 49.38C241.724 49.9 241.864 50.3 241.784 50.58C241.744 50.82 241.384 50.94 240.704 50.94H235.244Z" fill="#EEEEEE"/>
<path d="M47.3591 34.1195L71 15.4007V52.8382L47.3591 34.1195ZM23.6416 34.1195L0 15.4007V52.8382L23.6416 34.1195ZM2.80095 54.9998L35.3544 29.2244L67.9072 54.9998H2.80095ZM62.9976 11.7993V17.3275L69.9804 11.7993H62.9976ZM7.70989 11.7993H0.72704L7.70989 17.3275V11.7993Z" fill="#EEEEEE"/>
<path d="M10.6202 1V19.4307L26.2608 31.8138L35.3545 24.6146L44.4482 31.8138L60.0888 19.4307V1H10.6202ZM17.1884 5.31956H28.0997V7.1199H17.1884V5.31956ZM46.2665 20.4398H17.1679V18.2803H46.2665V20.4398ZM46.2665 16.1202H17.1679V13.9601H46.2665V16.1202ZM46.2665 11.7999H17.1679V9.63981H46.2665V11.7999Z" fill="#EEEEEE"/>
</svg>
